<svg width="800" height="1135" xmlns="http://www.w3.org/2000/svg">
 <!-- Created with SVG-edit - http://svg-edit.googlecode.com/ -->
 <g fill="transparent">
  <title>Layer 1</title>
  <path fill="#ffff00" stroke-width="5" d="m1461.039185,290.058838c-0.389282,-15.472107 7.268311,-30.672943 20.14856,-39.323425c21.002441,-15.972107 48.720581,-23.25 74.776733,-18.852386c12.902588,-1.992249 18.612671,11.410309 14.073608,21.731995c-7.015625,6.865509 -19.219238,0.335144 -28.305542,3.886322c-29.458008,3.795807 -58.537476,16.611298 -78.446777,39.128723c-0.121948,-2.40918 -3.203857,-4.014343 -2.246582,-6.571228l0,0l0,0l0,0zm0.355713,13.729553c1.568481,-10.914551 12.446655,-16.597168 20.010376,-23.230072c25.462769,-18.032806 57.381226,-25.183624 88.248291,-23.970947c0.764893,12.435028 -5.083374,24.304596 -12.119873,34.155823c-9.661743,5.38974 -21.67688,-0.747467 -31.918579,4.159271c-17.963623,4.351501 -37.959106,9.833313 -49.456543,25.503876c-4.178101,12.585083 -13.008057,-0.223663 -13.691406,-7.630096c-0.970581,-2.942719 -0.836182,-5.966461 -1.072266,-8.987823l0,0l0,-0.000031l0,0zm4.931763,-37.320709c1.537354,-13.693939 10.557495,-25.017303 18.831909,-35.45108c9.327515,-11.120483 22.025146,-19.272247 36.2948,-22.258972c11.310547,-2.955856 22.966919,-4.185089 34.562378,-5.426743c8.794312,6.758514 14.387817,18.510605 12.914429,29.62822c-6.829956,1.730652 -18.906006,-4.122055 -28.116211,-2.694489c-26.119263,0.245773 -52.821533,10.721375 -70.473999,30.263397c-1.469604,1.886047 -2.790649,3.884247 -4.013306,5.939667l0,0l0,0zm-1.39978,54.019653c9.76709,7.836761 10.08728,21.420624 16.089966,31.644836c-7.195435,-9.268646 -13.528564,-20.096313 -16.089966,-31.644836zm7.734619,7.465942c3.063354,-8.44751 12.669312,-20.320068 20.683228,-19.437317c3.203735,8.257294 4.590942,17.204193 9.798218,24.647888c13.981567,25.680023 39.567017,47.896515 69.983887,48.595856c4.974243,1.009155 18.160522,-2.343109 17.624146,-0.956543c-12.713135,6.248169 -27.431396,7.617615 -41.438965,7.115295c-26.015259,-1.728516 -51.927368,-14.231171 -67.566528,-35.384186c-4.427002,-7.597443 -6.942993,-16.107513 -9.083984,-24.579498l0,-0.001495l0,0l0,0zm21.412354,-21.538757c7.019531,-3.266724 20.170898,-13.2034 25.445679,-5.194977c12.872925,25.370148 34.635986,46.941559 61.428711,57.085724c13.9104,4.643524 29.559082,4.570709 43.125,-1.224548c-5.657471,8.789886 -15.019775,14.426331 -23.842407,19.604279c-22.548706,9.630737 -49.804932,4.408813 -68.803711,-10.606201c-18.388428,-14.56546 -32.823242,-35.413269 -37.304199,-58.668518l-0.026733,-0.538818l-0.022339,-0.45697l0,0l0,0l0,0l0,0.000031zm9.407104,-91.352325c17.064941,-11.745483 38.21167,-17.254028 58.838989,-15.790924c-10.558716,6.743744 -23.808228,4.18219 -35.385864,7.833038c-8.077515,1.759781 -16.09436,4.125687 -23.453125,7.95787l0,0l0,0.000015zm14.734619,82.755402c11.235352,-5.322052 24.021362,-5.235107 36.164063,-4.506958c7.320313,11.408875 12.540283,24.669434 23.907104,32.894104c13.24646,11.835449 32.522217,15.176361 49.213013,9.614899c5.731689,-3.874512 12.095337,-1.398407 8.96521,6.287445c-3.768066,12.76123 -17.147583,18.366547 -29.408569,18.985474c-25.084717,2.507141 -48.032227,-11.752838 -64.977051,-28.97641c-9.885864,-9.902618 -18.235352,-21.450378 -23.86377,-34.298553l0,0zm38.102539,-94.890198c9.143311,-7.257874 21.594238,-0.690308 30.949341,2.782867c9.304443,7.965302 10.551514,21.219299 13.010254,32.535217c4.111328,26.562805 2.448364,55.098633 -9.96936,79.345947c-2.966553,8.498871 -11.494385,13.103241 -16.960205,3.91394c-6.351685,-7.009705 -11.208008,-15.165955 -15.791504,-23.377197c-2.710571,-7.857422 6.162476,-13.396606 8.02063,-20.580841c3.620239,-7.16275 4.541138,-15.220276 4.947388,-23.059204c1.705811,-11.7276 0.028198,-23.894424 -3.054443,-35.249695c-2.161865,-6.283752 -5.671509,-12.370468 -11.1521,-16.31102l0,0l0,-0.000015l0,0zm26.278931,125.453156c17.99707,-20.346008 20.850098,-49.236328 19.495605,-75.246979c-0.825073,-15.335495 -3.155273,-31.183548 -11.236816,-44.538574c8.350952,0.258636 17.333252,8.108002 23.877319,13.888626c18.544922,23.594894 23.999023,58.111893 9.899902,85.222366c-5.545898,10.963074 -13.05835,20.856537 -21.877197,29.389587c-7.382446,-0.606384 -14.866211,-3.401917 -20.158813,-8.715027l0,0l0,0zm20.522583,8.83316c19.382813,-18.69339 33.419434,-45.558685 29.230469,-73.10611c-1.66748,-12.901764 -6.37561,-25.364929 -13.42627,-36.279678c12.913696,8.051544 20.093506,22.312347 26.552246,35.56105c9.283691,23.155762 4.236694,51.378021 -12.355347,69.884796c-8.520264,4.836304 -20.542847,5.576324 -30.001099,3.939972l0,-0.000031zm31.9104,-4.323334c6.648926,-11.622803 14.193359,-23.4039 14.88623,-37.192078c1.033813,-4.610199 -0.569702,9.044922 -1.125854,11.917877c-1.768311,10.14621 -4.077148,20.975403 -10.361816,29.254395c-1.446167,-0.802673 -0.800781,-4.711395 -3.39856,-3.980194z" stroke="#000000" id="svg_2"/>
  <path fill="#ffff00" stroke-width="5" d="m607.372559,263.892181c-0.389221,-15.472107 7.26825,-30.672974 20.148499,-39.323425c21.002502,-15.972137 48.720642,-23.250031 74.776794,-18.852417c12.902588,-1.992218 18.61261,11.410339 14.073608,21.731995c-7.015625,6.86554 -19.219238,0.335175 -28.305481,3.886353c-29.458069,3.795807 -58.537537,16.611298 -78.446838,39.128723c-0.121948,-2.40918 -3.203857,-4.014343 -2.246582,-6.571228l0,0l0,0l0,0zm0.355713,13.729553c1.568481,-10.914581 12.446655,-16.597168 20.010315,-23.230072c25.46283,-18.032806 57.381287,-25.183624 88.248352,-23.970947c0.764893,12.435028 -5.083374,24.304626 -12.119873,34.155823c-9.661743,5.38974 -21.67688,-0.747467 -31.918518,4.159241c-17.963684,4.351532 -37.959106,9.833344 -49.456665,25.503906c-4.17804,12.585083 -13.007935,-0.223663 -13.691345,-7.630096c-0.970581,-2.942749 -0.836182,-5.966461 -1.072266,-8.987823l0,0l0,-0.000031l0,0zm4.931824,-37.320709c1.537231,-13.693939 10.557434,-25.017303 18.831848,-35.451111c9.327515,-11.120483 22.025146,-19.272217 36.2948,-22.258942c11.310486,-2.955872 22.966919,-4.185089 34.562378,-5.426758c8.794312,6.758514 14.387756,18.51062 12.914429,29.628204c-6.830017,1.730652 -18.906067,-4.12204 -28.116211,-2.694458c-26.119263,0.245758 -52.821533,10.721375 -70.473999,30.263397c-1.469604,1.886047 -2.79071,3.884247 -4.013306,5.939667l0,0l0.000061,0zm-1.399902,54.019653c9.767151,7.836731 10.087402,21.420593 16.090088,31.644836c-7.195496,-9.268646 -13.528625,-20.096313 -16.090088,-31.644836zm7.73468,7.465942c3.063354,-8.44751 12.669312,-20.320068 20.683167,-19.437317c3.203796,8.257294 4.590942,17.204193 9.798279,24.647888c13.981567,25.679993 39.566956,47.896515 69.983887,48.595856c4.974243,1.009155 18.160461,-2.343109 17.624207,-0.956543c-12.713196,6.248169 -27.431519,7.617615 -41.438965,7.115295c-26.015381,-1.728516 -51.927429,-14.231171 -67.56665,-35.384186c-4.426941,-7.597443 -6.942993,-16.107513 -9.083923,-24.579529l0,-0.001465l0,0l0,0zm21.412415,-21.538757c7.01947,-3.266724 20.170776,-13.2034 25.445679,-5.195007c12.872864,25.370178 34.635925,46.941589 61.42865,57.085754c13.910339,4.643494 29.559082,4.570709 43.125,-1.224579c-5.657471,8.789917 -15.019836,14.426361 -23.842468,19.604309c-22.548584,9.630737 -49.804871,4.408813 -68.803711,-10.606232c-18.388367,-14.56543 -32.823181,-35.413239 -37.304138,-58.668488l-0.026733,-0.538818l-0.022278,-0.45697l0,0l0,0l0,0l0,0.000031zm9.406982,-91.352356c17.065002,-11.745483 38.211731,-17.253998 58.839111,-15.790894c-10.558777,6.743744 -23.808228,4.182159 -35.385925,7.833008c-8.077576,1.759796 -16.094421,4.125732 -23.453186,7.957886l0,0l0,0zm14.73468,82.755432c11.235291,-5.322052 24.021301,-5.235107 36.164001,-4.506958c7.320374,11.408875 12.540283,24.669403 23.907166,32.894104c13.24646,11.835419 32.522217,15.176361 49.213013,9.614899c5.731628,-3.874512 12.095276,-1.398407 8.965149,6.287445c-3.768066,12.76123 -17.147522,18.366547 -29.408447,18.985474c-25.084778,2.507141 -48.032288,-11.752838 -64.977112,-28.97641c-9.885864,-9.902618 -18.235413,-21.450378 -23.86377,-34.298553l0,0zm38.102478,-94.890198c9.143311,-7.257874 21.59436,-0.690308 30.949463,2.782867c9.304382,7.965302 10.551392,21.219269 13.010132,32.535217c4.111328,26.562805 2.448425,55.098602 -9.969238,79.345947c-2.966675,8.49884 -11.494446,13.103241 -16.960266,3.91394c-6.351685,-7.009705 -11.207947,-15.165955 -15.791443,-23.377197c-2.710571,-7.857422 6.162415,-13.396637 8.020508,-20.580841c3.620239,-7.16275 4.54126,-15.220276 4.947388,-23.059204c1.705933,-11.7276 0.028259,-23.89444 -3.054382,-35.249695c-2.161865,-6.283752 -5.671509,-12.370483 -11.152161,-16.311035l0,0l0,0l0,0zm26.278992,125.453125c17.99707,-20.345978 20.850037,-49.236267 19.495605,-75.246948c-0.825073,-15.33551 -3.155334,-31.183563 -11.236816,-44.538574c8.350952,0.258636 17.333191,8.108002 23.877319,13.888611c18.544861,23.59491 23.998962,58.111877 9.899963,85.222382c-5.546021,10.963043 -13.058472,20.856537 -21.877319,29.389557c-7.382446,-0.606354 -14.86615,-3.401917 -20.158752,-8.715027l0,0l0,0zm20.522583,8.833191c19.382813,-18.69339 33.419434,-45.558685 29.230408,-73.10611c-1.66748,-12.901764 -6.375549,-25.364929 -13.42627,-36.279694c12.913696,8.051544 20.093506,22.312347 26.552246,35.561035c9.283752,23.155792 4.236755,51.378052 -12.355286,69.884827c-8.520264,4.836304 -20.542847,5.576324 -30.001099,3.939972l0,-0.000031zm31.9104,-4.323334c6.648865,-11.622803 14.193298,-23.403931 14.886169,-37.192108c1.033813,-4.610168 -0.569641,9.044952 -1.125793,11.917908c-1.768311,10.14621 -4.077087,20.975403 -10.361877,29.254364c-1.446106,-0.802643 -0.80072,-4.711365 -3.398499,-3.980164z" stroke="#000000" id="svg_3"/>
  <path id="svg_4" fill="#ffff00" stroke-width="5" d="m-109.417496,138.857132c-0.833168,-33.326218 15.557175,-66.068222 43.126556,-84.700897c44.954636,-34.403252 104.283615,-50.079499 160.055206,-40.607239c27.617065,-4.291183 39.839066,24.577332 30.123672,46.809753c-15.01651,14.788025 -41.13765,0.721886 -60.586197,8.371002c-63.053246,8.175995 -125.295998,35.779953 -167.910629,84.281525c-0.261024,-5.18927 -6.857658,-8.646729 -4.808609,-14.154144l0,0l0,0l0,0zm0.761383,29.572845c3.357109,-23.509506 26.641304,-35.749557 42.830788,-50.03656c54.501617,-38.841843 122.82119,-54.244377 188.890244,-51.632362c1.63707,26.784538 -10.880722,52.351082 -25.94191,73.570168c-20.680313,11.609253 -46.398026,-1.610031 -68.319702,8.958801c-38.449966,9.373016 -81.249054,21.180588 -105.85878,54.93428c-8.942978,27.107727 -27.842751,-0.48175 -29.305481,-16.434875c-2.077469,-6.338562 -1.789932,-12.851501 -2.29512,-19.359375l0,0l0,-0.000076l0,0l-0.000008,0l-0.000008,0l-0.000008,0l-0.000008,0l-0.000008,0zm10.556137,-80.387131c3.290413,-29.496147 22.59761,-53.886169 40.308411,-76.360092c19.965042,-23.953026 47.143532,-41.511532 77.68692,-47.944801c24.209396,-6.366817 49.159286,-9.014496 73.978638,-11.688995c18.823624,14.557541 30.796188,39.871052 27.642548,63.817863c-14.619293,3.727753 -40.46727,-8.878723 -60.181152,-5.803802c-55.906677,0.529419 -113.06118,23.093399 -150.845139,65.18605c-3.145721,4.062454 -5.973404,8.366486 -8.590233,12.793777l0,0l0,0l0.000008,0zm-2.996277,116.355927c20.906052,16.879974 21.5914,46.139008 34.439735,68.16156c-15.40139,-19.964264 -28.957146,-43.28656 -34.439735,-68.16156zm16.555481,16.081299c6.556915,-18.195557 27.118015,-43.768524 44.271172,-41.867126c6.857399,17.785858 9.826569,37.057068 20.972549,53.090454c29.92675,55.313568 84.690712,103.166962 149.796135,104.673309c10.647125,2.173706 38.871429,-5.046936 37.723602,-2.060333c-27.211807,13.458282 -58.715477,16.40799 -88.697609,15.326019c-55.684265,-3.723145 -111.147415,-30.65329 -144.622131,-76.215973c-9.475601,-16.364563 -14.861122,-34.694855 -19.443718,-52.943207l0,-0.003143l0,0l0,0l0.000008,0l-0.000008,0zm45.831955,-46.393524c15.024742,-7.036377 43.174438,-28.439529 54.46498,-11.189804c27.553636,54.646225 74.136003,101.110062 131.484315,122.960159c29.77417,10.001862 63.269409,9.845123 92.306274,-2.637665c-12.109344,18.933075 -32.148956,31.07373 -51.033203,42.226776c-48.263931,20.744202 -106.604263,9.496429 -147.270126,-22.845337c-39.359154,-31.373291 -70.255997,-76.278534 -79.847336,-126.369308l-0.057022,-1.160583l-0.047882,-0.984299l0,0l0,0l0,0l0,0.000061zm20.135201,-196.768875c36.526451,-25.299267 81.789803,-37.164413 125.941353,-34.012951c-22.600266,14.525723 -50.960037,9.008247 -75.741257,16.872009c-17.289551,3.790489 -34.44912,8.886574 -50.200096,17.140896l0,0l0,0.000031l0,0.000004l0,0.000004l0,0.00001l0,-0.000002zm31.538734,178.251495c24.048386,-11.46347 51.416061,-11.276199 77.406769,-9.707809c15.668732,24.574219 26.84169,53.13681 51.171753,70.852448c28.353302,25.49295 69.611816,32.689209 105.337433,20.710052c12.268188,-8.34552 25.889221,-3.012115 19.189392,13.542877c-8.065308,27.487122 -36.703186,39.56073 -62.947083,40.89389c-53.692322,5.400238 -102.810043,-25.315094 -139.079468,-62.41391c-21.160065,-21.329803 -39.031784,-46.203156 -51.078796,-73.877548l0,0zm81.555954,-204.389297c19.570755,-15.633141 46.221329,-1.486862 66.245285,5.994205c19.915497,17.156906 22.584747,45.705421 27.847534,70.079369c8.800018,57.215137 5.240692,118.679981 -21.338684,170.907658c-6.349915,18.306152 -24.603149,28.223816 -36.302277,8.43045c-13.595459,-15.098572 -23.989975,-32.666779 -33.80069,-50.353424c-5.801865,-16.92453 13.190353,-28.855766 17.16748,-44.330254c7.748901,-15.428223 9.72023,-32.783768 10.589508,-49.668499c3.651459,-25.260735 0.060562,-51.46753 -6.537659,-75.926239c-4.627335,-13.534924 -12.139633,-26.645439 -23.870499,-35.133247l0,0l0,-0.000031l0,0l0,0.000011zm56.248428,270.220459c38.521637,-43.824326 44.628357,-106.05275 41.729279,-162.078568c-1.766083,-33.031982 -6.753815,-67.168014 -24.051788,-95.934113c17.874634,0.557091 37.100616,17.464275 51.108002,29.915454c39.694153,50.822346 51.368317,125.170414 21.190216,183.565197c-11.870941,23.613922 -27.950775,44.924042 -46.827057,63.303802c-15.801636,-1.306061 -31.819977,-7.327576 -43.148651,-18.77179l0,0l0,0l0,0.000015zm43.927551,19.026306c41.48764,-40.264709 71.532104,-98.131378 62.565735,-157.4673c-3.569122,-27.789818 -13.646423,-54.634926 -28.738098,-78.144813c27.641022,17.342636 43.008911,48.059776 56.833435,76.596885c19.871368,49.876526 9.068542,110.666 -26.445648,150.528778c-18.237213,10.417206 -43.970703,12.011169 -64.215424,8.486542l0,-0.000092zm68.302155,-9.312256c14.231476,-25.035004 30.379822,-50.411026 31.862854,-80.110153c2.212891,-9.930084 -1.219238,19.482437 -2.409668,25.670654c-3.784912,21.854477 -8.726746,45.180069 -22.178894,63.012589c-3.095306,-1.728851 -1.713898,-10.148071 -7.274292,-8.57309z" stroke="#000000"/>
  <path id="svg_1" fill="#ffff00" stroke-width="5" d="m4.37256,1029.891968c-0.38925,-15.472046 7.26824,-30.672974 20.14844,-39.322998c21.002602,-15.972046 48.720699,-23.25 74.77689,-18.853027c12.9021,-1.991943 18.612106,11.411011 14.073105,21.732056c-7.014992,6.865967 -19.218803,0.334961 -28.305099,3.886963c-29.45808,3.795044 -58.537479,16.610962 -78.446789,39.128052c-0.12195,-2.408936 -3.20386,-4.014038 -2.246552,-6.571045l0,0l0,0l0,0l0.000004,0l0.000001,0l0.000001,0zm0.35571,13.72998c1.56842,-10.915039 12.446632,-16.596924 20.01033,-23.229858c25.462801,-18.033081 57.381304,-25.184082 88.2484,-23.971069c0.764999,12.434937 -5.083,24.303955 -12.120003,34.156006c-9.661697,5.389038 -21.676796,-0.748047 -31.918495,4.159058c-17.9636,4.35083 -37.959103,9.832886 -49.456602,25.503906c-4.1781,12.584961 -13.007977,-0.223999 -13.69136,-7.630005c-0.97058,-2.942993 -0.83624,-5.966919 -1.07227,-8.988037l0,0l0,0l0,0l0,0l0.000001,0zm4.93177,-37.320923c1.53726,-13.694092 10.557461,-25.01709 18.83186,-35.45105c9.327501,-11.120972 22.025202,-19.271973 36.294798,-22.258972c11.310501,-2.955994 22.967003,-4.184998 34.562401,-5.427002c8.7939,6.758972 14.387901,18.511047 12.914902,29.627991c-6.830002,1.730957 -18.906502,-4.12207 -28.116699,-2.69397c-26.119293,0.245972 -52.821501,10.720947 -70.473997,30.262939c-1.4696,1.886108 -2.7907,3.88501 -4.013268,5.940063l0,0l0,0l0.00001,0l-0.000006,0l-0.000001,0l0.000001,0zm-1.39985,54.02002c9.767209,7.835938 10.087411,21.419922 16.090011,31.64502c-7.1954,-9.269043 -13.528595,-20.097046 -16.090011,-31.64502zm7.73461,7.465942c3.063401,-8.447998 12.6694,-20.319946 20.683202,-19.437988c3.2038,8.257935 4.591003,17.203979 9.798298,24.648071c13.981602,25.679932 39.566998,47.896973 69.983707,48.595947c4.973999,1.009033 18.160995,-2.343018 17.623993,-0.957031c-12.71299,6.249023 -27.430992,7.618042 -41.438591,7.115967c-26.015404,-1.728882 -51.927425,-14.230957 -67.566607,-35.384033c-4.426901,-7.5979 -6.943007,-16.10791 -9.084002,-24.579834l0,-0.001099l0,0l0,0l0,0l-0.000001,0l0.000001,0zm21.4124,-21.53894c7.019501,-3.26709 20.170898,-13.203979 25.445702,-5.195068c12.872898,25.369995 34.635899,46.94104 61.429096,57.085938c13.910004,4.643066 29.559006,4.570068 43.125,-1.224854c-5.658005,8.789917 -15.020004,14.426025 -23.843002,19.604004c-22.547997,9.630981 -49.804695,4.408936 -68.803596,-10.606079c-18.388298,-14.565063 -32.823097,-35.412964 -37.304199,-58.667969l-0.0266,-0.539063l-0.0224,-0.456909l0,0l0,0l0,0l0,0zm9.407101,-91.352051c17.064899,-11.745972 38.2117,-17.255005 58.838699,-15.791016c-10.558403,6.743042 -23.807899,4.182007 -35.385498,7.833008c-8.077602,1.76001 -16.094501,4.125 -23.453201,7.958008l0,0l0,0zm14.734699,82.755005c11.235203,-5.322021 24.021297,-5.234985 36.163998,-4.506958c7.32,11.408936 12.540001,24.668945 23.907005,32.894043c13.247002,11.835938 32.521996,15.175903 49.21299,9.61499c5.73201,-3.875 12.095001,-1.398071 8.965012,6.286987c-3.768005,12.761963 -17.147003,18.366943 -29.408005,18.985962c-25.084999,2.506958 -48.031998,-11.753052 -64.977303,-28.975952c-9.885895,-9.903076 -18.235397,-21.45105 -23.863697,-34.299072l0,0zm38.102398,-94.890015c9.1436,-7.257996 21.594604,-0.690979 30.9496,2.78302c9.304001,7.964966 10.550995,21.218933 13.009995,32.534973c4.111008,26.56311 2.448013,55.098022 -9.968994,79.346069c-2.966995,8.499023 -11.494995,13.103027 -16.959999,3.91394c-6.351997,-7.01001 -11.208,-15.166016 -15.792,-23.377075c-2.710602,-7.85791 6.162003,-13.396851 8.021004,-20.580933c3.619995,-7.162964 4.541,-15.220947 4.946999,-23.05896c1.706001,-11.728027 0.028,-23.89502 -3.054001,-35.25c-2.162003,-6.283997 -5.671997,-12.371033 -11.152603,-16.311035l0,0l0,0l0,0zm26.278603,125.453003c17.997002,-20.346069 20.849998,-49.235962 19.495995,-75.24707c-0.824997,-15.335938 -3.154999,-31.18396 -11.237,-44.53894c8.350998,0.259033 17.333008,8.108032 23.878006,13.889038c18.543991,23.594971 23.998001,58.111938 9.899002,85.222046c-5.546005,10.962891 -13.057999,20.856934 -21.876999,29.390015c-7.382004,-0.606079 -14.865997,-3.4021 -20.159004,-8.715088l0,0l0,0zm20.523003,8.833008c19.382996,-18.692993 33.418991,-45.55896 29.229996,-73.106079c-1.666992,-12.901978 -6.375,-25.36499 -13.425995,-36.279907c12.914001,8.052002 20.093994,22.312988 26.552002,35.560913c9.283997,23.156006 4.237,51.378052 -12.355011,69.885132c-8.519989,4.835938 -20.542999,5.575928 -30.000992,3.939941l0,0zm31.910004,-4.322998c6.648987,-11.622925 14.194,-23.403931 14.886993,-37.192017c1.033005,-4.610962 -0.570007,9.045044 -1.126007,11.916992c-1.768997,10.146973 -4.076996,20.976074 -10.362,29.255005c-1.445999,-0.802979 -0.800995,-4.71106 -3.398987,-3.97998z" stroke="#000000"/>
  <path fill="#ffff00" stroke-width="5" d="m481.58252,137.857147c-0.83316,-33.326233 15.55719,-66.068237 43.126587,-84.700912c44.954651,-34.403259 104.283569,-50.079499 160.055176,-40.607239c27.617065,-4.291183 39.839111,24.577332 30.123657,46.809753c-15.016479,14.788025 -41.137573,0.721893 -60.586182,8.371002c-63.053223,8.175995 -125.296021,35.779953 -167.910614,84.28154c-0.261047,-5.189301 -6.857666,-8.646729 -4.808624,-14.154144l0,0l0,0l0,0zm0.761414,29.572845c3.357086,-23.509521 26.641296,-35.749573 42.83075,-50.03656c54.501648,-38.841858 122.821228,-54.2444 188.890259,-51.632385c1.637085,26.784546 -10.880737,52.351074 -25.941895,73.57019c-20.680298,11.609253 -46.398071,-1.610046 -68.319702,8.958801c-38.449951,9.373016 -81.249084,21.180573 -105.858765,54.934265c-8.942993,27.107727 -27.842773,-0.48175 -29.305511,-16.434875c-2.077454,-6.338562 -1.789917,-12.851501 -2.295135,-19.359375l0,0l0,-0.000061l0,0l0,0l0,0l0,0l0,0zm10.556122,-80.387146c3.290436,-29.496155 22.597626,-53.886169 40.308441,-76.360092c19.965027,-23.953018 47.143494,-41.511536 77.68689,-47.944809c24.209351,-6.366806 49.159302,-9.014496 73.978638,-11.68898c18.823669,14.557541 30.796204,39.871048 27.642578,63.817856c-14.619324,3.727753 -40.467285,-8.878723 -60.181152,-5.803802c-55.906738,0.529419 -113.061218,23.093399 -150.845154,65.18605c-3.145752,4.062454 -5.973419,8.36647 -8.59024,12.793777l0,0l0,0l0,0zm-2.996277,116.355927c20.906067,16.879974 21.5914,46.139008 34.439728,68.16156c-15.401367,-19.964264 -28.957153,-43.28656 -34.439728,-68.16156zm16.555481,16.081299c6.556915,-18.195557 27.118011,-43.768524 44.27121,-41.867126c6.857361,17.785858 9.826538,37.057068 20.972473,53.090454c29.926758,55.313568 84.690735,103.166962 149.796204,104.673309c10.647095,2.173706 38.871399,-5.046936 37.723572,-2.060303c-27.211853,13.458252 -58.715515,16.407959 -88.697632,15.325989c-55.684265,-3.723145 -111.1474,-30.65329 -144.622131,-76.215973c-9.475586,-16.364563 -14.861115,-34.694855 -19.443695,-52.943207l0,-0.003143l0,0l0,0l0,0zm45.832001,-46.393524c15.024658,-7.036377 43.174377,-28.439514 54.464966,-11.189819c27.553589,54.64624 74.135986,101.110077 131.484253,122.960175c29.77417,10.001862 63.269409,9.845123 92.306274,-2.637665c-12.109314,18.933075 -32.148926,31.07373 -51.033203,42.226776c-48.263916,20.744171 -106.604248,9.496429 -147.270081,-22.845337c-39.359192,-31.373291 -70.256042,-76.278534 -79.847351,-126.369293l-0.057007,-1.160583l-0.047852,-0.984314l0,0l0,0l0,0l0,0.000061zm20.135132,-196.768875c36.526489,-25.299255 81.789856,-37.164406 125.941406,-34.012947c-22.600281,14.525719 -50.960083,9.008247 -75.741272,16.872002c-17.289551,3.790497 -34.449097,8.886581 -50.200134,17.1409l0,0l0,0.000031l0,0l0,0.000015l0,0zm31.538757,178.251511c24.048401,-11.46347 51.416077,-11.276215 77.406799,-9.707825c15.668701,24.574219 26.841675,53.13681 51.171753,70.852448c28.353271,25.49295 69.611816,32.689209 105.337402,20.710052c12.268188,-8.34552 25.889221,-3.012115 19.189392,13.542877c-8.065308,27.487122 -36.703186,39.56073 -62.947083,40.89389c-53.692322,5.400238 -102.810059,-25.315094 -139.079468,-62.41391c-21.160034,-21.329803 -39.031738,-46.203156 -51.078796,-73.877533l0,0zm81.555969,-204.389313c19.57074,-15.633148 46.221313,-1.486862 66.245239,5.994202c19.915527,17.156906 22.584778,45.705415 27.847595,70.079376c8.799988,57.215118 5.240662,118.679993 -21.338684,170.907654c-6.349976,18.306152 -24.60321,28.223816 -36.302307,8.43045c-13.595459,-15.098572 -23.98999,-32.666779 -33.800659,-50.353424c-5.80188,-16.92453 13.190369,-28.855743 17.167419,-44.330231c7.748962,-15.428223 9.720276,-32.783783 10.589539,-49.668518c3.651428,-25.260742 0.060608,-51.467529 -6.537659,-75.926239c-4.627319,-13.534927 -12.139648,-26.645432 -23.870483,-35.13324l0,0l0,-0.000031l0,0zm56.248413,270.220459c38.521606,-43.824341 44.628357,-106.052734 41.729248,-162.078568c-1.766052,-33.031967 -6.753784,-67.168015 -24.051758,-95.934097c17.874634,0.557083 37.100586,17.464264 51.108032,29.915451c39.694153,50.822342 51.368286,125.170395 21.190186,183.565201c-11.870972,23.613922 -27.950806,44.924042 -46.827026,63.303802c-15.801636,-1.306061 -31.820007,-7.327576 -43.148682,-18.77179l0,0l0,0zm43.927551,19.026306c41.48761,-40.264709 71.532104,-98.131378 62.565735,-157.467285c-3.569092,-27.789825 -13.646423,-54.634933 -28.738098,-78.144822c27.640991,17.342637 43.008911,48.059769 56.833435,76.596879c19.871338,49.876526 9.068542,110.666016 -26.445618,150.528778c-18.237244,10.417206 -43.970703,12.011169 -64.215454,8.486542l0,-0.000092zm68.302124,-9.312256c14.231506,-25.035004 30.379822,-50.411041 31.862854,-80.110138c2.212952,-9.930084 -1.219177,19.482422 -2.409607,25.670624c-3.784912,21.854492 -8.726807,45.180084 -22.178894,63.012604c-3.095337,-1.728851 -1.713928,-10.148071 -7.274353,-8.57309z" stroke="#000000" id="svg_5"/>
  <path fill="#ffff00" stroke-width="5" d="m-102.417465,488.857147c-0.83316,-33.326233 15.557175,-66.068237 43.126556,-84.700897c44.954636,-34.403259 104.283615,-50.079498 160.055191,-40.607239c27.617065,-4.291199 39.839081,24.577332 30.123688,46.809753c-15.01651,14.787994 -41.137634,0.721863 -60.586212,8.370972c-63.053223,8.176025 -125.29599,35.779968 -167.910614,84.281555c-0.261032,-5.189301 -6.857666,-8.646729 -4.808609,-14.154144l0,0l0,0l0,0zm0.761383,29.572845c3.357101,-23.509521 26.641312,-35.749573 42.830795,-50.03656c54.501617,-38.841858 122.821198,-54.244385 188.890228,-51.632385c1.637085,26.784546 -10.880737,52.351074 -25.941895,73.57019c-20.680328,11.609253 -46.398041,-1.610046 -68.319702,8.958801c-38.449982,9.373016 -81.249069,21.180603 -105.858795,54.934265c-8.942978,27.107727 -27.842743,-0.48175 -29.305481,-16.434875c-2.077469,-6.338562 -1.789932,-12.851501 -2.29512,-19.359375l0,0l0,-0.000061l0,0l-0.000015,0l0,0l-0.000015,0l0,0zm10.556137,-80.387146c3.290421,-29.496155 22.59761,-53.886169 40.308411,-76.360107c19.965057,-23.953003 47.143524,-41.511505 77.68692,-47.944794c24.209381,-6.366791 49.159302,-9.014496 73.978638,-11.688995c18.823639,14.557556 30.796204,39.871063 27.642548,63.817871c-14.619293,3.727753 -40.467255,-8.878723 -60.181152,-5.803802c-55.906677,0.529419 -113.061172,23.093414 -150.845139,65.186066c-3.145721,4.062439 -5.973404,8.366455 -8.590225,12.793762l0,0l0,0l0,0zm-2.996277,116.355957c20.906052,16.879944 21.5914,46.138977 34.439728,68.161499c-15.401382,-19.964233 -28.957138,-43.286499 -34.439728,-68.161499zm16.555481,16.081299c6.556915,-18.195557 27.118011,-43.768555 44.271179,-41.867188c6.857391,17.785889 9.826569,37.057129 20.972534,53.090454c29.926758,55.313599 84.690704,103.166992 149.796143,104.67334c10.647125,2.173706 38.871429,-5.046936 37.723602,-2.060303c-27.211823,13.458252 -58.715485,16.407959 -88.697632,15.325989c-55.684265,-3.723145 -111.1474,-30.653259 -144.622116,-76.216003c-9.475601,-16.364502 -14.86113,-34.694824 -19.44371,-52.943176l0,-0.003113l0,0l0,0l0,0zm45.83197,-46.393555c15.024719,-7.036377 43.174408,-28.439514 54.464966,-11.189819c27.553619,54.64624 74.136017,101.110046 131.484314,122.960144c29.77417,10.001892 63.269379,9.845154 92.306244,-2.637634c-12.109314,18.933105 -32.148926,31.07373 -51.033173,42.226807c-48.263947,20.744141 -106.604279,9.496399 -147.270111,-22.845337c-39.359161,-31.373291 -70.256012,-76.278564 -79.847351,-126.369324l-0.057007,-1.160583l-0.047882,-0.984314l0,0l0,0l0,0l0,0.000061zm20.135193,-196.76886c36.526459,-25.299255 81.789795,-37.164429 125.941345,-34.01297c-22.60025,14.525726 -50.960052,9.00827 -75.741241,16.872009c-17.289551,3.790497 -34.449127,8.886566 -50.200104,17.1409l0,0l0,0.000031l0,0l0,0.000031l0,0zm31.538727,178.251495c24.048401,-11.46347 51.416077,-11.276215 77.406769,-9.707825c15.668732,24.574188 26.841705,53.13681 51.171753,70.852448c28.353302,25.492981 69.611847,32.689209 105.337433,20.710022c12.268188,-8.345459 25.889221,-3.012085 19.189392,13.542908c-8.065308,27.487122 -36.703186,39.56073 -62.947083,40.89386c-53.692322,5.400269 -102.810059,-25.315063 -139.079468,-62.413879c-21.160065,-21.329834 -39.031769,-46.203125 -51.078796,-73.877533l0,0zm81.555969,-204.389313c19.57074,-15.633148 46.221313,-1.486847 66.24527,5.994202c19.915497,17.156921 22.584747,45.705414 27.847534,70.079376c8.800018,57.215118 5.240692,118.679993 -21.338684,170.907623c-6.349915,18.306213 -24.603149,28.223877 -36.302277,8.430481c-13.595459,-15.098572 -23.98999,-32.666748 -33.80069,-50.353424c-5.801849,-16.92453 13.190369,-28.855743 17.16748,-44.330231c7.748901,-15.428223 9.720245,-32.783783 10.589508,-49.668518c3.651459,-25.260742 0.060577,-51.467529 -6.537659,-75.926239c-4.627319,-13.534943 -12.139648,-26.645416 -23.870483,-35.13324l0,0l0,-0.000031l0,0zm56.248413,270.220459c38.521637,-43.824341 44.628357,-106.052734 41.729279,-162.078552c-1.766083,-33.031982 -6.753815,-67.16803 -24.051788,-95.934113c17.874634,0.557098 37.100616,17.464264 51.108032,29.915436c39.694153,50.822357 51.368286,125.17041 21.190186,183.565247c-11.870972,23.613892 -27.950806,44.924011 -46.827057,63.303772c-15.801636,-1.30603 -31.819977,-7.327576 -43.148651,-18.77179l0,0l0,0zm43.927551,19.026306c41.48761,-40.264709 71.532104,-98.131378 62.565735,-157.467285c-3.569092,-27.789825 -13.646423,-54.634949 -28.738098,-78.144806c27.640991,17.342621 43.008911,48.059753 56.833435,76.596863c19.871338,49.876526 9.068542,110.666046 -26.445618,150.528778c-18.237244,10.417236 -43.970703,12.011169 -64.215454,8.486572l0,-0.000122zm68.302124,-9.312256c14.231506,-25.034973 30.379822,-50.411072 31.862854,-80.110138c2.212952,-9.930084 -1.219177,19.482452 -2.409607,25.670624c-3.784912,21.854492 -8.726807,45.180115 -22.178894,63.012634c-3.095337,-1.728882 -1.713928,-10.148071 -7.274353,-8.57312z" stroke="#000000" id="svg_7"/>
  <path fill="#ffff00" stroke-width="5" d="m477.58252,480.857147c-0.83316,-33.326233 15.55719,-66.068237 43.126587,-84.700897c44.954651,-34.403259 104.283569,-50.079529 160.055176,-40.607239c27.617065,-4.291199 39.839111,24.577332 30.123657,46.809753c-15.016479,14.787994 -41.137573,0.721863 -60.586182,8.370972c-63.053223,8.176025 -125.296021,35.779968 -167.910614,84.281555c-0.261047,-5.189301 -6.857666,-8.646729 -4.808624,-14.154144l0,0l0,0l0,0zm0.761414,29.572845c3.357086,-23.509521 26.641296,-35.749573 42.83075,-50.03656c54.501648,-38.841858 122.821228,-54.244385 188.890259,-51.632385c1.637085,26.784546 -10.880737,52.351074 -25.941895,73.57019c-20.680298,11.609253 -46.398071,-1.610046 -68.319702,8.958801c-38.449951,9.372986 -81.249084,21.180603 -105.858795,54.934265c-8.942963,27.107727 -27.842743,-0.48175 -29.305481,-16.434875c-2.077454,-6.338562 -1.789917,-12.851501 -2.295135,-19.359375l0,0l0,-0.000061l0,0l0,0l0,0l0,0l0,0zm10.556122,-80.387146c3.290436,-29.496155 22.597626,-53.886169 40.308441,-76.360107c19.965027,-23.953003 47.143494,-41.511505 77.68689,-47.944794c24.209351,-6.366821 49.159302,-9.014496 73.978638,-11.688995c18.823669,14.557556 30.796204,39.871063 27.642578,63.817871c-14.619324,3.727753 -40.467285,-8.878723 -60.181152,-5.803802c-55.906738,0.529419 -113.061218,23.093414 -150.845154,65.186066c-3.145752,4.062439 -5.973419,8.366455 -8.59024,12.793762l0,0l0,0l0,0zm-2.996277,116.355957c20.906067,16.879944 21.5914,46.138977 34.439728,68.161499c-15.401367,-19.964233 -28.957153,-43.286499 -34.439728,-68.161499zm16.555481,16.081299c6.556915,-18.195557 27.118011,-43.768555 44.27121,-41.867188c6.857361,17.785889 9.826538,37.057129 20.972473,53.090454c29.926758,55.313599 84.690735,103.166992 149.796204,104.67334c10.647095,2.173706 38.871399,-5.046936 37.723572,-2.060303c-27.211853,13.458252 -58.715515,16.407959 -88.697632,15.325989c-55.684265,-3.723145 -111.1474,-30.653259 -144.622131,-76.216003c-9.475586,-16.364502 -14.861115,-34.694824 -19.443695,-52.943176l0,-0.003113l0,0l0,0l0,0zm45.832001,-46.393555c15.024658,-7.036377 43.174377,-28.439514 54.464966,-11.189819c27.553589,54.64624 74.135986,101.110046 131.484253,122.960144c29.77417,10.001892 63.269409,9.845154 92.306274,-2.637634c-12.109314,18.933105 -32.148926,31.07373 -51.033203,42.226807c-48.263916,20.744141 -106.604248,9.496399 -147.270081,-22.845337c-39.359192,-31.373291 -70.256042,-76.278564 -79.847351,-126.369324l-0.057007,-1.160583l-0.047852,-0.984314l0,0l0,0l0,0l0,0.000061zm20.135132,-196.76886c36.526489,-25.299286 81.789856,-37.164429 125.941406,-34.01297c-22.600281,14.525726 -50.960083,9.00827 -75.741272,16.872009c-17.289551,3.790497 -34.449097,8.886566 -50.200134,17.1409l0,0l0,0.000031l0,0l0,0l0,0.000031zm31.538757,178.251465c24.048401,-11.46344 51.416077,-11.276184 77.406799,-9.707794c15.668701,24.574188 26.841675,53.13681 51.171753,70.852448c28.353271,25.492981 69.611816,32.689209 105.337402,20.710022c12.268188,-8.345459 25.889221,-3.012085 19.189392,13.542908c-8.065308,27.487122 -36.703186,39.56073 -62.947083,40.89386c-53.692322,5.400269 -102.810059,-25.315063 -139.079468,-62.413879c-21.160034,-21.329834 -39.031738,-46.203125 -51.078796,-73.877563l0,0zm81.555969,-204.389282c19.57074,-15.633148 46.221313,-1.486877 66.245239,5.994202c19.915527,17.156891 22.584778,45.705414 27.847595,70.079376c8.799988,57.215118 5.240662,118.679993 -21.338684,170.907623c-6.349976,18.306213 -24.60321,28.223877 -36.302307,8.430481c-13.595459,-15.098572 -23.98999,-32.666748 -33.800659,-50.353394c-5.80188,-16.924561 13.190369,-28.855774 17.167419,-44.330261c7.748962,-15.428223 9.720276,-32.783783 10.589539,-49.668518c3.651428,-25.260742 0.060608,-51.467529 -6.537659,-75.926239c-4.627319,-13.534912 -12.139648,-26.645447 -23.870483,-35.13324l0,0l0,-0.000031l0,0zm56.248413,270.220459c38.521606,-43.824341 44.628357,-106.052734 41.729248,-162.078552c-1.766052,-33.031982 -6.753784,-67.16803 -24.051758,-95.934113c17.874634,0.557098 37.100586,17.464264 51.108032,29.915436c39.694153,50.822357 51.368286,125.17041 21.190186,183.565247c-11.870972,23.613892 -27.950806,44.924011 -46.827026,63.303772c-15.801636,-1.30603 -31.820007,-7.327576 -43.148682,-18.77179l0,0l0,0zm43.927551,19.026306c41.48761,-40.264709 71.532104,-98.131378 62.565735,-157.467285c-3.569092,-27.789825 -13.646423,-54.634949 -28.738098,-78.144836c27.640991,17.342651 43.008911,48.059784 56.833435,76.596893c19.871338,49.876526 9.068542,110.665985 -26.445618,150.528778c-18.237244,10.417236 -43.970703,12.011169 -64.215454,8.486572l0,-0.000122zm68.302124,-9.312256c14.231506,-25.034973 30.379822,-50.411011 31.862854,-80.110138c2.212952,-9.930084 -1.219177,19.482452 -2.409607,25.670624c-3.784912,21.854492 -8.726807,45.180115 -22.178894,63.012634c-3.095337,-1.728882 -1.713928,-10.148071 -7.274353,-8.57312z" stroke="#000000" id="svg_8"/>
  <path fill="#ffff00" stroke-width="5" d="m-92.417465,820.857117c-0.83316,-33.326233 15.557175,-66.068237 43.126556,-84.700867c44.954636,-34.403259 104.283615,-50.079529 160.055191,-40.607239c27.617065,-4.291199 39.839081,24.577332 30.123688,46.809753c-15.01651,14.788025 -41.137634,0.721863 -60.586212,8.370972c-63.053223,8.176025 -125.29599,35.779968 -167.910614,84.281555c-0.261032,-5.18927 -6.857666,-8.646729 -4.808609,-14.154175l0,0l0,0l0,0zm0.761383,29.572876c3.357101,-23.509521 26.641312,-35.749573 42.830795,-50.03656c54.501617,-38.841858 122.821198,-54.244385 188.890228,-51.632385c1.637085,26.784546 -10.880737,52.351074 -25.941895,73.57019c-20.680328,11.609253 -46.398041,-1.610046 -68.319702,8.958801c-38.449982,9.372986 -81.249069,21.180603 -105.858795,54.934265c-8.942978,27.107727 -27.842743,-0.48175 -29.305481,-16.434875c-2.077469,-6.338562 -1.789932,-12.851501 -2.29512,-19.359375l0,0l0,-0.000061l0,0l-0.000015,0l0,0l-0.000015,0l0,0zm10.556137,-80.387146c3.290421,-29.496155 22.59761,-53.886169 40.308411,-76.360107c19.965057,-23.953003 47.143525,-41.511475 77.68692,-47.944824c24.209381,-6.366821 49.159302,-9.014465 73.978638,-11.688965c18.823639,14.557556 30.796204,39.871033 27.642548,63.817871c-14.619293,3.727783 -40.467255,-8.878723 -60.181152,-5.803833c-55.906677,0.529419 -113.061172,23.093445 -150.845139,65.186096c-3.145721,4.062439 -5.973404,8.366455 -8.590225,12.793762l0,0l0,0l0,0zm-2.996277,116.355957c20.906052,16.879944 21.5914,46.138977 34.439728,68.161499c-15.401382,-19.964233 -28.957138,-43.286499 -34.439728,-68.161499zm16.555481,16.081299c6.556915,-18.195557 27.118011,-43.768555 44.271179,-41.867188c6.857391,17.785889 9.826569,37.057129 20.972534,53.090454c29.926758,55.313599 84.690705,103.166992 149.796143,104.67334c10.647125,2.173706 38.871429,-5.046936 37.723602,-2.060303c-27.211823,13.458252 -58.715485,16.407959 -88.697632,15.325928c-55.684265,-3.723145 -111.147401,-30.653198 -144.622116,-76.215942c-9.475601,-16.364502 -14.86113,-34.694824 -19.44371,-52.943176l0,-0.003113l0,0l0,0l0,0zm45.83197,-46.393555c15.024719,-7.036377 43.174408,-28.439514 54.464966,-11.189819c27.553619,54.64624 74.136017,101.110046 131.484314,122.960144c29.77417,10.001892 63.269379,9.845154 92.306244,-2.637634c-12.109314,18.933105 -32.148926,31.07373 -51.033173,42.226807c-48.263947,20.744141 -106.604279,9.496399 -147.270111,-22.845337c-39.359161,-31.373291 -70.256012,-76.278564 -79.847351,-126.369324l-0.057007,-1.160583l-0.047882,-0.984314l0,0l0,0l0,0l0,0.000061zm20.135193,-196.76886c36.526459,-25.299255 81.789795,-37.164429 125.941345,-34.013c-22.60025,14.525757 -50.960052,9.008301 -75.741241,16.87207c-17.289551,3.790466 -34.449127,8.886536 -50.200104,17.140869l0,0l0,0.000061l0,0l0,0l0,0zm31.538727,178.251465c24.048401,-11.46344 51.416077,-11.276184 77.406769,-9.707825c15.668732,24.574219 26.841705,53.136841 51.171753,70.852478c28.353302,25.492981 69.611847,32.689209 105.337433,20.710022c12.268188,-8.345459 25.889221,-3.012085 19.189392,13.542908c-8.065308,27.487122 -36.703186,39.56073 -62.947083,40.89386c-53.692322,5.400269 -102.810059,-25.315063 -139.079468,-62.413879c-21.160065,-21.329834 -39.031769,-46.203125 -51.078796,-73.877563l0,0zm81.555969,-204.389282c19.57074,-15.633118 46.221313,-1.486877 66.24527,5.994202c19.915497,17.15686 22.584747,45.705444 27.847534,70.079346c8.800018,57.215149 5.240692,118.679993 -21.338684,170.907654c-6.349915,18.306213 -24.603149,28.223877 -36.302277,8.430481c-13.595459,-15.098572 -23.98999,-32.666748 -33.80069,-50.353394c-5.801849,-16.924561 13.190369,-28.855774 17.16748,-44.330261c7.748901,-15.428223 9.720245,-32.783752 10.589508,-49.668518c3.651459,-25.260742 0.060577,-51.467529 -6.537659,-75.92627c-4.627319,-13.534912 -12.139648,-26.645386 -23.870483,-35.133179l0,0l0,-0.000061l0,0zm56.248413,270.220459c38.521637,-43.824341 44.628357,-106.052734 41.729279,-162.078552c-1.766083,-33.031982 -6.753815,-67.16803 -24.051788,-95.934082c17.874634,0.557068 37.100616,17.464233 51.108032,29.915405c39.694153,50.822388 51.368286,125.17041 21.190186,183.565247c-11.870972,23.613892 -27.950806,44.924011 -46.827057,63.303772c-15.801636,-1.30603 -31.819977,-7.327576 -43.148651,-18.77179l0,0l0,0zm43.927551,19.026306c41.48761,-40.264709 71.532104,-98.131348 62.565735,-157.467285c-3.569092,-27.789856 -13.646423,-54.634949 -28.738098,-78.144836c27.640991,17.342651 43.008911,48.059753 56.833435,76.596863c19.871338,49.876587 9.068542,110.666016 -26.445618,150.528809c-18.237244,10.417236 -43.970703,12.011169 -64.215454,8.486572l0,-0.000122zm68.302124,-9.312256c14.231506,-25.034973 30.379822,-50.411011 31.862854,-80.110168c2.212952,-9.930054 -1.219177,19.482483 -2.409607,25.670654c-3.784912,21.854492 -8.726807,45.180115 -22.178894,63.012634c-3.095337,-1.728882 -1.713928,-10.148071 -7.274353,-8.57312z" stroke="#000000" id="svg_9"/>
  <path fill="#ffff00" stroke-width="5" d="m173.582535,-55.142822c-0.83316,-33.326294 15.557175,-66.068268 43.126556,-84.700897c44.954636,-34.403259 104.283615,-50.079529 160.055191,-40.607239c27.617065,-4.291199 39.839081,24.577332 30.123688,46.809753c-15.01651,14.788025 -41.137634,0.721863 -60.586212,8.370972c-63.053223,8.176025 -125.29599,35.779999 -167.910614,84.281586c-0.261032,-5.189331 -6.857666,-8.646729 -4.808609,-14.154175l0,0l0,0l0,0zm0.761383,29.572876c3.357101,-23.509521 26.641312,-35.749573 42.830795,-50.036621c54.501617,-38.841827 122.821198,-54.244354 188.890228,-51.632355c1.637085,26.784546 -10.880737,52.351044 -25.941895,73.57016c-20.680328,11.609314 -46.398041,-1.610046 -68.319702,8.958862c-38.449982,9.372986 -81.249069,21.180603 -105.858795,54.934204c-8.942978,27.107727 -27.842743,-0.48175 -29.305481,-16.434875c-2.077469,-6.338501 -1.789932,-12.851441 -2.29512,-19.359375l0,0l0,0l0,0l-0.000015,0l0,0l-0.000015,0l0,0zm10.556137,-80.387177c3.290421,-29.496155 22.59761,-53.886169 40.308411,-76.360107c19.965057,-23.953003 47.143524,-41.511475 77.68692,-47.944824c24.209381,-6.366821 49.159302,-9.014465 73.978638,-11.688965c18.823639,14.557556 30.796204,39.871033 27.642548,63.817871c-14.619293,3.727783 -40.467255,-8.878723 -60.181152,-5.803833c-55.906677,0.529419 -113.061172,23.093445 -150.845139,65.186096c-3.145721,4.062439 -5.973404,8.366455 -8.590225,12.793762l0,0l0,0l0,0zm-2.996277,116.355988c20.906052,16.879883 21.5914,46.138977 34.439728,68.161438c-15.401382,-19.964233 -28.957138,-43.286438 -34.439728,-68.161438zm16.555481,16.081299c6.556915,-18.195618 27.118011,-43.768616 44.271179,-41.867249c6.857391,17.78595 9.826569,37.057129 20.972534,53.090454c29.926758,55.313599 84.690704,103.166992 149.796143,104.673401c10.647125,2.173645 38.871429,-5.046936 37.723602,-2.060364c-27.211823,13.458252 -58.715485,16.407959 -88.697632,15.325928c-55.684265,-3.723145 -111.1474,-30.653137 -144.622116,-76.215942c-9.475601,-16.364441 -14.86113,-34.694824 -19.44371,-52.943115l0,-0.003113l0,0l0,0l0,0zm45.83197,-46.393616c15.024719,-7.036316 43.174408,-28.439453 54.464966,-11.189819c27.553619,54.64624 74.136017,101.110046 131.484314,122.960144c29.77417,10.001953 63.269379,9.845154 92.306244,-2.637573c-12.109314,18.933044 -32.148926,31.07373 -51.033173,42.226746c-48.263947,20.744141 -106.604279,9.49646 -147.270111,-22.845337c-39.359161,-31.37323 -70.256012,-76.278564 -79.847351,-126.369263l-0.057007,-1.160582l-0.047882,-0.984314l0,0l0,0l0,0l0,0l0,-0.000002zm20.135193,-196.768829c36.526459,-25.299255 81.789795,-37.164429 125.941345,-34.013c-22.60025,14.525757 -50.960052,9.008301 -75.741241,16.87207c-17.289551,3.790466 -34.449127,8.886536 -50.200104,17.140869l0,0l0,0.000061l0,0l0,0l0,0zm31.538727,178.251495c24.048401,-11.46344 51.416077,-11.276184 77.406769,-9.707886c15.668732,24.574219 26.841705,53.136902 51.171753,70.852539c28.353302,25.49292 69.611847,32.689209 105.337433,20.709961c12.268188,-8.345398 25.889221,-3.012085 19.189392,13.542969c-8.065308,27.487061 -36.703186,39.56073 -62.947083,40.893799c-53.692322,5.400269 -102.810059,-25.315002 -139.079468,-62.413818c-21.160065,-21.329895 -39.031769,-46.203125 -51.078796,-73.877563l0,0zm81.555969,-204.389313c19.57074,-15.633118 46.221313,-1.486877 66.24527,5.994202c19.915497,17.15686 22.584747,45.705444 27.847534,70.079346c8.800018,57.215149 5.240692,118.680023 -21.338684,170.907623c-6.349915,18.306213 -24.603149,28.223938 -36.302277,8.430481c-13.595459,-15.098511 -23.98999,-32.666748 -33.80069,-50.353394c-5.801849,-16.924561 13.190369,-28.855713 17.16748,-44.3302c7.748901,-15.428223 9.720245,-32.783783 10.589508,-49.668549c3.651459,-25.260742 0.060577,-51.467529 -6.537659,-75.92627c-4.627319,-13.534912 -12.139648,-26.645386 -23.870483,-35.133179l0,0l0,-0.000061l0,0zm56.248413,270.220428c38.521637,-43.824341 44.628357,-106.052673 41.729279,-162.078522c-1.766083,-33.031982 -6.753815,-67.16803 -24.051788,-95.934082c17.874634,0.557068 37.100616,17.464233 51.108032,29.915405c39.694153,50.822388 51.368286,125.170441 21.190186,183.565216c-11.870972,23.613953 -27.950806,44.924011 -46.827057,63.303833c-15.801636,-1.306091 -31.819977,-7.327576 -43.148651,-18.771851l0,0l0,0zm43.927551,19.026367c41.48761,-40.264771 71.532104,-98.131409 62.565735,-157.467316c-3.569092,-27.789856 -13.646423,-54.634949 -28.738098,-78.144836c27.640991,17.342651 43.008911,48.059753 56.833435,76.596863c19.871338,49.876556 9.068542,110.666047 -26.445618,150.528839c-18.237244,10.417236 -43.970703,12.011169 -64.215454,8.486511l0,-0.000061zm68.302124,-9.312317c14.231506,-25.034912 30.379822,-50.411011 31.862854,-80.110107c2.212952,-9.930054 -1.219177,19.482483 -2.409607,25.670654c-3.784912,21.854431 -8.726807,45.180054 -22.178894,63.012573c-3.095337,-1.728882 -1.713928,-10.148071 -7.274353,-8.57312z" stroke="#000000" id="svg_10"/>
  <path fill="#ffff00" stroke-width="5" d="m174.582535,279.857178c-0.83316,-33.326233 15.557175,-66.068237 43.126556,-84.700867c44.954636,-34.403259 104.283615,-50.079529 160.055191,-40.607239c27.617065,-4.291199 39.839081,24.577332 30.123688,46.809753c-15.01651,14.788025 -41.137634,0.721863 -60.586212,8.370972c-63.053223,8.176025 -125.29599,35.779968 -167.910614,84.281555c-0.261032,-5.18927 -6.857666,-8.646729 -4.808609,-14.154175l0,0l0,0l0,0zm0.761383,29.572876c3.357101,-23.509521 26.641312,-35.749573 42.830795,-50.03656c54.501617,-38.841858 122.821198,-54.244385 188.890228,-51.632385c1.637085,26.784546 -10.880737,52.351074 -25.941895,73.57019c-20.680328,11.609253 -46.398041,-1.610046 -68.319702,8.958801c-38.449982,9.372986 -81.249069,21.180603 -105.858795,54.934265c-8.942978,27.107727 -27.842743,-0.48175 -29.305481,-16.434875c-2.077469,-6.338562 -1.789932,-12.851501 -2.29512,-19.359375l0,0l0,-0.000061l0,0l-0.000015,0l0,0l-0.000015,0l0,0zm10.556137,-80.387146c3.290421,-29.496155 22.59761,-53.886169 40.308411,-76.360107c19.965057,-23.953003 47.143524,-41.511475 77.68692,-47.944824c24.209381,-6.366821 49.159302,-9.014465 73.978638,-11.688965c18.823639,14.557556 30.796204,39.871033 27.642548,63.817871c-14.619293,3.727783 -40.467255,-8.878723 -60.181152,-5.803833c-55.906677,0.529419 -113.061172,23.093445 -150.845139,65.186096c-3.145721,4.062439 -5.973404,8.366455 -8.590225,12.793762l0,0l0,0l0,0zm-2.996277,116.355957c20.906052,16.879944 21.5914,46.138977 34.439728,68.161499c-15.401382,-19.964233 -28.957138,-43.286499 -34.439728,-68.161499zm16.555481,16.081299c6.556915,-18.195557 27.118011,-43.768555 44.271179,-41.867188c6.857391,17.785889 9.826569,37.057129 20.972534,53.090454c29.926758,55.313599 84.690704,103.166992 149.796143,104.67334c10.647125,2.173706 38.871429,-5.046936 37.723602,-2.060303c-27.211823,13.458252 -58.715485,16.407959 -88.697632,15.325928c-55.684265,-3.723145 -111.1474,-30.653198 -144.622116,-76.215942c-9.475601,-16.364502 -14.86113,-34.694824 -19.44371,-52.943176l0,-0.003113l0,0l0,0l0,0zm45.83197,-46.393555c15.024719,-7.036377 43.174408,-28.439514 54.464966,-11.189819c27.553619,54.64624 74.136017,101.110046 131.484314,122.960144c29.77417,10.001892 63.269379,9.845154 92.306244,-2.637634c-12.109314,18.933105 -32.148926,31.07373 -51.033173,42.226807c-48.263947,20.744141 -106.604279,9.496399 -147.270111,-22.845337c-39.359161,-31.373291 -70.256012,-76.278564 -79.847351,-126.369324l-0.057007,-1.160583l-0.047882,-0.984314l0,0l0,0l0,0l0,0.000061zm20.135193,-196.76886c36.526459,-25.299255 81.789795,-37.164429 125.941345,-34.013c-22.60025,14.525757 -50.960052,9.008301 -75.741241,16.87207c-17.289551,3.790466 -34.449127,8.886536 -50.200104,17.140869l0,0l0,0.000061l0,0l0,0l0,0zm31.538727,178.251465c24.048401,-11.46344 51.416077,-11.276184 77.406769,-9.707825c15.668732,24.574219 26.841705,53.136841 51.171753,70.852478c28.353302,25.492981 69.611847,32.689209 105.337433,20.710022c12.268188,-8.345459 25.889221,-3.012085 19.189392,13.542908c-8.065308,27.487122 -36.703186,39.56073 -62.947083,40.89386c-53.692322,5.400269 -102.810059,-25.315063 -139.079468,-62.413879c-21.160065,-21.329834 -39.031769,-46.203125 -51.078796,-73.877563l0,0zm81.555969,-204.389282c19.57074,-15.633118 46.221313,-1.486877 66.24527,5.994202c19.915497,17.15686 22.584747,45.705444 27.847534,70.079346c8.800018,57.215149 5.240692,118.679993 -21.338684,170.907654c-6.349915,18.306213 -24.603149,28.223877 -36.302277,8.430481c-13.595459,-15.098572 -23.98999,-32.666748 -33.80069,-50.353394c-5.801849,-16.924561 13.190369,-28.855774 17.16748,-44.330261c7.748901,-15.428223 9.720245,-32.783752 10.589508,-49.668518c3.651459,-25.260742 0.060577,-51.467529 -6.537659,-75.92627c-4.627319,-13.534912 -12.139648,-26.645386 -23.870483,-35.133179l0,0l0,-0.000061l0,0zm56.248413,270.220459c38.521637,-43.824341 44.628357,-106.052734 41.729279,-162.078552c-1.766083,-33.031982 -6.753815,-67.16803 -24.051788,-95.934082c17.874634,0.557068 37.100616,17.464233 51.108032,29.915405c39.694153,50.822388 51.368286,125.17041 21.190186,183.565247c-11.870972,23.613892 -27.950806,44.924011 -46.827057,63.303772c-15.801636,-1.30603 -31.819977,-7.327576 -43.148651,-18.77179l0,0l0,0zm43.927551,19.026306c41.48761,-40.264709 71.532104,-98.131348 62.565735,-157.467285c-3.569092,-27.789856 -13.646423,-54.634949 -28.738098,-78.144836c27.640991,17.342651 43.008911,48.059753 56.833435,76.596863c19.871338,49.876587 9.068542,110.666016 -26.445618,150.528809c-18.237244,10.417236 -43.970703,12.011169 -64.215454,8.486572l0,-0.000122zm68.302124,-9.312256c14.231506,-25.034973 30.379822,-50.411011 31.862854,-80.110168c2.212952,-9.930054 -1.219177,19.482483 -2.409607,25.670654c-3.784912,21.854492 -8.726807,45.180115 -22.178894,63.012634c-3.095337,-1.728882 -1.713928,-10.148071 -7.274353,-8.57312z" stroke="#000000" id="svg_11"/>
  <path fill="#ffff00" stroke-width="5" d="m497.58252,817.857178c-0.83316,-33.326294 15.55719,-66.068298 43.126587,-84.700867c44.954651,-34.403259 104.283569,-50.079529 160.055176,-40.607239c27.617065,-4.29126 39.839111,24.577271 30.123657,46.809692c-15.016479,14.788086 -41.137573,0.721924 -60.586182,8.370972c-63.053223,8.176086 -125.296021,35.780029 -167.910614,84.281616c-0.261047,-5.189331 -6.857666,-8.646729 -4.808624,-14.154175l0,0l0,0l0,0zm0.761414,29.572876c3.357086,-23.509521 26.641296,-35.749573 42.83075,-50.036621c54.501648,-38.841858 122.821228,-54.244324 188.890259,-51.632385c1.637085,26.784607 -10.880737,52.351074 -25.941895,73.57019c-20.680298,11.609314 -46.398071,-1.610046 -68.319702,8.958862c-38.449951,9.372986 -81.249084,21.180603 -105.858765,54.934204c-8.942993,27.107727 -27.842773,-0.48175 -29.305511,-16.434875c-2.077454,-6.338501 -1.789917,-12.85144 -2.295135,-19.359375l0,0l0,0l0,0l0,0l0,0l0,0l0,0zm10.556122,-80.387207c3.290436,-29.496094 22.597626,-53.886108 40.308441,-76.360107c19.965027,-23.953003 47.143494,-41.511414 77.68689,-47.944824c24.209351,-6.366821 49.159302,-9.014465 73.978638,-11.688904c18.823669,14.557556 30.796204,39.871033 27.642578,63.81781c-14.619324,3.727783 -40.467285,-8.878662 -60.181152,-5.803833c-55.906738,0.529419 -113.061218,23.093506 -150.845154,65.186157c-3.145752,4.062378 -5.973419,8.366455 -8.59024,12.793701l0,0l0,0l0,0zm-2.996277,116.356018c20.906036,16.879883 21.5914,46.138977 34.439728,68.161438c-15.401367,-19.964233 -28.957153,-43.286438 -34.439728,-68.161438zm16.555511,16.081299c6.556885,-18.195618 27.117981,-43.768616 44.271179,-41.867249c6.857361,17.78595 9.826538,37.057129 20.972473,53.090454c29.926758,55.313599 84.690735,103.166992 149.796204,104.673401c10.647095,2.173645 38.871399,-5.046936 37.723572,-2.060364c-27.211853,13.458252 -58.715515,16.407959 -88.697632,15.325928c-55.684265,-3.723145 -111.1474,-30.653137 -144.622131,-76.215942c-9.475586,-16.364441 -14.861145,-34.694824 -19.443665,-52.943115l0,-0.003113l0,0l0,0l0,0zm45.83197,-46.393616c15.024658,-7.036316 43.174377,-28.439453 54.464966,-11.189819c27.553589,54.64624 74.135986,101.110046 131.484253,122.960144c29.77417,10.001953 63.269409,9.845154 92.306274,-2.637573c-12.109314,18.933044 -32.148926,31.07373 -51.033203,42.226746c-48.263916,20.744141 -106.604248,9.49646 -147.270081,-22.845337c-39.359192,-31.37323 -70.256042,-76.278564 -79.847351,-126.369263l-0.057007,-1.160583l-0.047852,-0.984314l0,0l0,0l0,0l0,0zm20.135132,-196.768799c36.526489,-25.299316 81.789856,-37.164429 125.941406,-34.013062c-22.600281,14.525757 -50.960083,9.008301 -75.741272,16.872131c-17.289551,3.790466 -34.449097,8.886536 -50.200134,17.140808l0,0l0,0.000122l0,0l0,0l0,0zm31.538757,178.251465c24.048401,-11.46344 51.416077,-11.276184 77.406799,-9.707886c15.668701,24.574219 26.841675,53.136902 51.171753,70.852539c28.353271,25.49292 69.611816,32.689209 105.337402,20.709961c12.268188,-8.345398 25.889221,-3.012085 19.189392,13.542969c-8.065308,27.487061 -36.703186,39.56073 -62.947083,40.893799c-53.692322,5.400269 -102.810059,-25.315002 -139.079468,-62.413818c-21.160034,-21.329895 -39.031738,-46.203125 -51.078796,-73.877563l0,0zm81.555969,-204.389282c19.57074,-15.633179 46.221313,-1.486877 66.245239,5.994141c19.915527,17.15686 22.584778,45.705444 27.847595,70.079346c8.799988,57.215149 5.240662,118.680054 -21.338684,170.907654c-6.349976,18.306213 -24.60321,28.223938 -36.302307,8.430481c-13.595459,-15.098511 -23.98999,-32.666748 -33.800659,-50.353394c-5.80188,-16.924561 13.190369,-28.855713 17.167419,-44.3302c7.748962,-15.428223 9.720276,-32.783752 10.589539,-49.668518c3.651428,-25.260803 0.060608,-51.46759 -6.537659,-75.926331c-4.627319,-13.534912 -12.139648,-26.645325 -23.870483,-35.133118l0,0l0,-0.000061l0,0zm56.248413,270.220398c38.521606,-43.824341 44.628357,-106.052673 41.729248,-162.078491c-1.766052,-33.032043 -6.753784,-67.16803 -24.051758,-95.934082c17.874634,0.557068 37.100586,17.464172 51.108032,29.915344c39.694153,50.822388 51.368286,125.170471 21.190186,183.565247c-11.870972,23.613953 -27.950806,44.924011 -46.827026,63.303833c-15.801636,-1.306091 -31.820007,-7.327576 -43.148682,-18.771851l0,0l0,0zm43.927551,19.026367c41.48761,-40.264771 71.532104,-98.131409 62.565735,-157.467285c-3.569092,-27.789856 -13.646423,-54.634949 -28.738098,-78.144836c27.640991,17.342651 43.008911,48.059692 56.833435,76.596802c19.871338,49.876587 9.068542,110.666077 -26.445618,150.52887c-18.237244,10.417236 -43.970703,12.011169 -64.215454,8.486511l0,-0.000061zm68.302124,-9.312317c14.231506,-25.034912 30.379822,-50.411011 31.862854,-80.110107c2.212952,-9.930054 -1.219177,19.482483 -2.409607,25.670654c-3.784912,21.854431 -8.726807,45.180054 -22.178894,63.012573c-3.095337,-1.728882 -1.713928,-10.148071 -7.274353,-8.57312z" stroke="#000000" id="svg_12"/>
  <path fill="#ffff00" stroke-width="5" d="m-103.417465,1142.857178c-0.83316,-33.326294 15.557175,-66.068237 43.126556,-84.700928c44.954636,-34.403198 104.283615,-50.079468 160.055191,-40.607178c27.617065,-4.291199 39.839081,24.577393 30.123688,46.809814c-15.01651,14.787964 -41.137634,0.721802 -60.586212,8.37085c-63.053223,8.176147 -125.29599,35.780029 -167.910614,84.281616c-0.261032,-5.189331 -6.857666,-8.646729 -4.808609,-14.154175l0,0l0,0l0,0zm0.761383,29.572876c3.357101,-23.509521 26.641312,-35.749634 42.830795,-50.036499c54.501617,-38.841919 122.821198,-54.244385 188.890228,-51.632446c1.637085,26.784546 -10.880737,52.351074 -25.941895,73.57019c-20.680328,11.609253 -46.398041,-1.610107 -68.319702,8.95874c-38.449982,9.373047 -81.249069,21.180664 -105.858795,54.934326c-8.942978,27.107788 -27.842743,-0.481689 -29.305481,-16.434814c-2.077469,-6.338623 -1.789932,-12.851563 -2.29512,-19.359497l0,0l0,0l0,0l-0.000015,0l0,0l-0.000015,0l0,0zm10.556137,-80.387085c3.290421,-29.496216 22.59761,-53.88623 40.308411,-76.360168c19.965057,-23.953003 47.143524,-41.511475 77.68692,-47.944824c24.209381,-6.366821 49.159302,-9.014465 73.978638,-11.688965c18.823639,14.557556 30.796204,39.871033 27.642548,63.817871c-14.619293,3.727783 -40.467255,-8.878723 -60.181152,-5.803833c-55.906677,0.529419 -113.061172,23.093445 -150.845139,65.186096c-3.145721,4.062378 -5.973404,8.366455 -8.590225,12.793823l0,0l0,0l0,0zm-2.996277,116.355835c20.906052,16.880005 21.5914,46.139038 34.439728,68.161499c-15.401382,-19.964111 -28.957138,-43.286499 -34.439728,-68.161499zm16.555481,16.081421c6.556915,-18.195557 27.118011,-43.768677 44.271179,-41.86731c6.857391,17.785889 9.826569,37.057251 20.972534,53.090454c29.926758,55.313599 84.690704,103.166992 149.796143,104.67334c10.647125,2.173706 38.871429,-5.046875 37.723602,-2.060303c-27.211823,13.458252 -58.715485,16.407959 -88.697632,15.325928c-55.684265,-3.723145 -111.1474,-30.653198 -144.622116,-76.21582c-9.475601,-16.364502 -14.86113,-34.694824 -19.44371,-52.943237l0,-0.003052l0,0l0,0l0,0zm45.83197,-46.393555c15.024719,-7.036377 43.174408,-28.439575 54.464966,-11.189941c27.553619,54.646362 74.136017,101.110107 131.484314,122.960205c29.77417,10.001953 63.269379,9.845093 92.306244,-2.637573c-12.109314,18.932983 -32.148926,31.073608 -51.033173,42.226685c-48.263947,20.744141 -106.604279,9.49646 -147.270111,-22.845215c-39.359161,-31.373291 -70.256012,-76.278564 -79.847351,-126.369385l-0.057007,-1.160645l-0.047882,-0.984253l0,0l0,0l0,0l0,0.000122zm20.135193,-196.768921c36.526459,-25.299255 81.789795,-37.164429 125.941345,-34.013c-22.60025,14.525757 -50.960052,9.008301 -75.741241,16.87207c-17.289551,3.790466 -34.449127,8.886536 -50.200104,17.140869l0,0l0,0.000061l0,0l0,0l0,0zm31.538727,178.251465c24.048401,-11.463379 51.416077,-11.276245 77.406769,-9.707886c15.668732,24.574219 26.841705,53.136963 51.171753,70.852539c28.353302,25.49292 69.611847,32.689209 105.337433,20.709961c12.268188,-8.345337 25.889221,-3.012085 19.189392,13.542969c-8.065308,27.487061 -36.703186,39.560791 -62.947083,40.893921c-53.692322,5.400269 -102.810059,-25.315063 -139.079468,-62.41394c-21.160065,-21.329834 -39.031769,-46.203125 -51.078796,-73.877563l0,0zm81.555969,-204.389282c19.57074,-15.633118 46.221313,-1.486877 66.24527,5.994202c19.915497,17.15686 22.584747,45.705444 27.847534,70.079285c8.800018,57.21521 5.240692,118.680054 -21.338684,170.907715c-6.349915,18.306152 -24.603149,28.223877 -36.302277,8.43042c-13.595459,-15.098511 -23.98999,-32.666626 -33.80069,-50.353271c-5.801849,-16.924561 13.190369,-28.855835 17.16748,-44.330322c7.748901,-15.428223 9.720245,-32.783691 10.589508,-49.668457c3.651459,-25.260742 0.060577,-51.46759 -6.537659,-75.926331c-4.627319,-13.534912 -12.139648,-26.645386 -23.870483,-35.133179l0,0l0,-0.000061l0,0zm56.248413,270.220459c38.521637,-43.824341 44.628357,-106.052734 41.729279,-162.078613c-1.766083,-33.03186 -6.753815,-67.167969 -24.051788,-95.934021c17.874634,0.557068 37.100616,17.464233 51.108032,29.915405c39.694153,50.822327 51.368286,125.170471 21.190186,183.565247c-11.870972,23.613892 -27.950806,44.924072 -46.827057,63.303833c-15.801636,-1.30603 -31.819977,-7.327637 -43.148651,-18.771851l0,0l0,0zm43.927551,19.026367c41.48761,-40.264771 71.532104,-98.131348 62.565735,-157.467285c-3.569092,-27.789917 -13.646423,-54.63501 -28.738098,-78.144897c27.640991,17.342651 43.008911,48.059692 56.833435,76.596802c19.871338,49.876587 9.068542,110.666138 -26.445618,150.528809c-18.237244,10.417236 -43.970703,12.01123 -64.215454,8.486694l0,-0.000122zm68.302124,-9.312256c14.231506,-25.035034 30.379822,-50.411133 31.862854,-80.110229c2.212952,-9.930054 -1.219177,19.482544 -2.409607,25.670654c-3.784912,21.854492 -8.726807,45.180054 -22.178894,63.012695c-3.095337,-1.728882 -1.713928,-10.148071 -7.274353,-8.57312z" stroke="#000000" id="svg_13"/>
  <path fill="#ffff00" stroke-width="5" d="m520.58252,1116.857178c-0.83313,-33.326294 15.55719,-66.068237 43.126587,-84.700928c44.954651,-34.403198 104.283569,-50.079468 160.055176,-40.607178c27.617065,-4.291199 39.839111,24.577332 30.123657,46.809814c-15.016479,14.787964 -41.137573,0.721802 -60.586182,8.37085c-63.053223,8.176147 -125.296021,35.780029 -167.910645,84.281616c-0.260986,-5.189331 -6.857666,-8.646729 -4.808594,-14.154175l0,0l0,0l0,0zm0.761414,29.572876c3.357056,-23.509521 26.641296,-35.749634 42.83075,-50.036499c54.501648,-38.841919 122.821228,-54.244385 188.890259,-51.632446c1.637085,26.784546 -10.880737,52.351074 -25.941895,73.57019c-20.680298,11.609253 -46.398071,-1.610107 -68.319702,8.95874c-38.449951,9.373047 -81.249084,21.180664 -105.858765,54.934326c-8.942993,27.107788 -27.842773,-0.481689 -29.305542,-16.434814c-2.077454,-6.338623 -1.789917,-12.851563 -2.295105,-19.359497l0,0l0,0l0,0l0,0l0,0l0,0l0,0zm10.556152,-80.387085c3.290405,-29.496216 22.597595,-53.88623 40.308411,-76.360168c19.965027,-23.953003 47.143494,-41.511475 77.68689,-47.944824c24.209351,-6.366821 49.159302,-9.014465 73.978638,-11.688965c18.823669,14.557556 30.796204,39.871033 27.642578,63.817871c-14.619324,3.727783 -40.467285,-8.878723 -60.181152,-5.803833c-55.906738,0.529419 -113.061218,23.093445 -150.845154,65.186096c-3.145752,4.062378 -5.97345,8.366455 -8.59021,12.793823l0,0l0,0l0,0zm-2.996277,116.355835c20.906006,16.880005 21.59137,46.139038 34.439697,68.161499c-15.401367,-19.964111 -28.957153,-43.286499 -34.439697,-68.161499zm16.555481,16.081421c6.556885,-18.195557 27.117981,-43.768677 44.271179,-41.86731c6.857361,17.785889 9.826538,37.057251 20.972473,53.090454c29.926758,55.313599 84.690735,103.166992 149.796204,104.67334c10.647095,2.173706 38.871399,-5.046875 37.723572,-2.060303c-27.211853,13.458252 -58.715515,16.407959 -88.697632,15.325928c-55.684265,-3.723145 -111.1474,-30.653198 -144.622131,-76.21582c-9.475586,-16.364502 -14.861145,-34.694824 -19.443665,-52.943237l0,-0.003052l0,0l0,0l0,0zm45.83197,-46.393555c15.024658,-7.036377 43.174377,-28.439575 54.464966,-11.189941c27.553589,54.646362 74.135986,101.110107 131.484253,122.960205c29.77417,10.001953 63.269409,9.845093 92.306274,-2.637573c-12.109314,18.932983 -32.148926,31.073608 -51.033203,42.226685c-48.263916,20.744141 -106.604248,9.49646 -147.270081,-22.845215c-39.359192,-31.373291 -70.256042,-76.278564 -79.847351,-126.369385l-0.057007,-1.160645l-0.047852,-0.984253l0,0l0,0l0,0l0,0.000122zm20.135132,-196.768921c36.526489,-25.299255 81.789856,-37.164429 125.941406,-34.013c-22.600281,14.525757 -50.960083,9.008301 -75.741272,16.87207c-17.289551,3.790466 -34.449097,8.886536 -50.200134,17.140869l0,0l0,0.000061l0,0l0,0l0,0zm31.538757,178.251465c24.048401,-11.463379 51.416077,-11.276245 77.406799,-9.707886c15.668701,24.574219 26.841675,53.136963 51.171753,70.852539c28.353271,25.49292 69.611816,32.689209 105.337402,20.709961c12.268188,-8.345337 25.889221,-3.012085 19.189392,13.542969c-8.065308,27.487061 -36.703186,39.560791 -62.947083,40.893921c-53.692322,5.400269 -102.810059,-25.315063 -139.079468,-62.41394c-21.160034,-21.329834 -39.031738,-46.203125 -51.078796,-73.877563l0,0zm81.555969,-204.389282c19.57074,-15.633118 46.221313,-1.486877 66.245239,5.994202c19.915527,17.15686 22.584778,45.705444 27.847595,70.079346c8.799988,57.215149 5.240662,118.679993 -21.338684,170.907654c-6.349976,18.306152 -24.60321,28.223877 -36.302307,8.43042c-13.595459,-15.098511 -23.98999,-32.666626 -33.800659,-50.353271c-5.80188,-16.924561 13.190369,-28.855835 17.167419,-44.330322c7.748962,-15.428223 9.720276,-32.783691 10.589539,-49.668457c3.651428,-25.260803 0.060608,-51.46759 -6.537659,-75.926331c-4.627319,-13.534912 -12.139648,-26.645386 -23.870483,-35.133179l0,0l0,-0.000061l0,0zm56.248413,270.220459c38.521606,-43.824341 44.628357,-106.052734 41.729248,-162.078613c-1.766052,-33.031921 -6.753784,-67.167969 -24.051758,-95.934021c17.874634,0.557068 37.100586,17.464233 51.108032,29.915405c39.694153,50.822388 51.368286,125.170471 21.190186,183.565247c-11.870972,23.613892 -27.950806,44.924072 -46.827026,63.303833c-15.801636,-1.30603 -31.820007,-7.327637 -43.148682,-18.771851l0,0l0,0zm43.927551,19.026367c41.48761,-40.264771 71.532104,-98.131348 62.565735,-157.467285c-3.569092,-27.789917 -13.646423,-54.63501 -28.738098,-78.144897c27.640991,17.342651 43.008911,48.059692 56.833435,76.596802c19.871338,49.876587 9.068542,110.666138 -26.445618,150.528809c-18.237244,10.417236 -43.970703,12.01123 -64.215454,8.486694l0,-0.000122zm68.302124,-9.312256c14.231506,-25.035034 30.379822,-50.411133 31.862854,-80.110229c2.212952,-9.930054 -1.219177,19.482544 -2.409607,25.670654c-3.784912,21.854492 -8.726807,45.180054 -22.178894,63.012695c-3.095337,-1.728882 -1.713928,-10.148071 -7.274353,-8.57312z" stroke="#000000" id="svg_14"/>
  <path fill="#ffff00" stroke-width="5" d="m201.582535,985.857178c-0.83316,-33.326233 15.557175,-66.068237 43.126556,-84.700867c44.954636,-34.403259 104.283615,-50.079529 160.055191,-40.607239c27.617065,-4.291199 39.839081,24.577332 30.123688,46.809753c-15.01651,14.788025 -41.137634,0.721863 -60.586212,8.370972c-63.053223,8.176025 -125.29599,35.779968 -167.910614,84.281555c-0.261032,-5.18927 -6.857666,-8.646729 -4.808609,-14.154175l0,0l0,0l0,0zm0.761383,29.572876c3.357101,-23.509521 26.641312,-35.749573 42.830795,-50.03656c54.501617,-38.841858 122.821198,-54.244385 188.890228,-51.632385c1.637085,26.784546 -10.880737,52.351074 -25.941895,73.57019c-20.680328,11.609253 -46.398041,-1.610046 -68.319702,8.958801c-38.449982,9.372986 -81.249084,21.180603 -105.858795,54.934265c-8.942978,27.107788 -27.842743,-0.481689 -29.305481,-16.434814c-2.077469,-6.338623 -1.789932,-12.851563 -2.29512,-19.359436l0,0l0,-0.000061l0,0l-0.000015,0l0,0l-0.000015,0l0,0zm10.556137,-80.387146c3.290421,-29.496155 22.59761,-53.886169 40.308411,-76.360107c19.965057,-23.953003 47.143524,-41.511475 77.68692,-47.944824c24.209381,-6.366821 49.159302,-9.014465 73.978638,-11.688965c18.823639,14.557556 30.796204,39.871033 27.642548,63.817871c-14.619293,3.727783 -40.467255,-8.878723 -60.181152,-5.803833c-55.906677,0.529419 -113.061188,23.093445 -150.845139,65.186096c-3.145721,4.062439 -5.973404,8.366455 -8.590225,12.793762l0,0l0,0l0,0zm-2.996277,116.355896c20.906052,16.880005 21.5914,46.139038 34.439728,68.161499c-15.401382,-19.964111 -28.957138,-43.286499 -34.439728,-68.161499zm16.555481,16.081421c6.556915,-18.195557 27.118011,-43.768616 44.271179,-41.86731c6.857391,17.785889 9.826569,37.057251 20.972534,53.090454c29.926758,55.313599 84.690704,103.166992 149.796143,104.67334c10.647125,2.173706 38.871429,-5.046875 37.723602,-2.060303c-27.211823,13.458252 -58.715485,16.407959 -88.697632,15.325928c-55.684265,-3.723145 -111.1474,-30.653198 -144.622116,-76.21582c-9.475601,-16.364502 -14.86113,-34.694824 -19.44371,-52.943237l0,-0.003052l0,0l0,0l0,0zm45.83197,-46.393616c15.024719,-7.036377 43.174408,-28.439514 54.464966,-11.189819c27.553619,54.646301 74.136017,101.110046 131.484314,122.960144c29.77417,10.001953 63.269379,9.845093 92.306244,-2.637573c-12.109314,18.932983 -32.148926,31.073608 -51.033173,42.226685c-48.263947,20.744141 -106.604279,9.49646 -147.270111,-22.845215c-39.359161,-31.373291 -70.256012,-76.278564 -79.847351,-126.369385l-0.057007,-1.160583l-0.047882,-0.984314l0,0l0,0l0,0l0,0.000061zm20.135193,-196.76886c36.526459,-25.299255 81.789795,-37.164429 125.941345,-34.013c-22.60025,14.525757 -50.960052,9.008301 -75.741241,16.87207c-17.289551,3.790466 -34.449127,8.886536 -50.200104,17.140869l0,0l0,0.000061l0,0l0,0l0,0zm31.538727,178.251465c24.048401,-11.46344 51.416077,-11.276184 77.406769,-9.707825c15.668732,24.574219 26.841705,53.136902 51.171753,70.852478c28.353302,25.49292 69.611847,32.689209 105.337433,20.709961c12.268188,-8.345337 25.889221,-3.012085 19.189392,13.542969c-8.065308,27.487061 -36.703186,39.560791 -62.947083,40.893921c-53.692322,5.400269 -102.810059,-25.315063 -139.079468,-62.41394c-21.160065,-21.329834 -39.031769,-46.203125 -51.078796,-73.877563l0,0zm81.555969,-204.389282c19.57074,-15.633118 46.221313,-1.486877 66.24527,5.994202c19.915497,17.15686 22.584747,45.705444 27.847534,70.079346c8.800018,57.215149 5.240692,118.679993 -21.338684,170.907654c-6.349915,18.306152 -24.603149,28.223877 -36.302277,8.43042c-13.595459,-15.098511 -23.98999,-32.666687 -33.80069,-50.353333c-5.801849,-16.924561 13.190369,-28.855774 17.16748,-44.330261c7.748901,-15.428223 9.720245,-32.783752 10.589508,-49.668518c3.651459,-25.260742 0.060577,-51.467529 -6.537659,-75.92627c-4.627319,-13.534912 -12.139648,-26.645386 -23.870483,-35.133179l0,0l0,-0.000061l0,0zm56.248413,270.220459c38.521637,-43.824341 44.628357,-106.052734 41.729279,-162.078552c-1.766083,-33.031982 -6.753815,-67.16803 -24.051788,-95.934082c17.874634,0.557068 37.100586,17.464233 51.108032,29.915405c39.694153,50.822388 51.368286,125.17041 21.190186,183.565247c-11.870972,23.613892 -27.950806,44.924072 -46.827057,63.303833c-15.801636,-1.30603 -31.819977,-7.327637 -43.148651,-18.771851l0,0l0,0zm43.927551,19.026367c41.48761,-40.264771 71.532104,-98.131409 62.565735,-157.467346c-3.569092,-27.789856 -13.646423,-54.634949 -28.738098,-78.144836c27.640991,17.342651 43.008911,48.059753 56.833435,76.596863c19.871338,49.876587 9.068542,110.666077 -26.445618,150.528748c-18.237244,10.417236 -43.970703,12.01123 -64.215454,8.486694l0,-0.000122zm68.302124,-9.312256c14.231506,-25.035034 30.379822,-50.411133 31.862854,-80.110229c2.212952,-9.930054 -1.219177,19.482483 -2.409607,25.670654c-3.784912,21.854492 -8.726807,45.180054 -22.178894,63.012695c-3.095337,-1.728882 -1.713928,-10.148071 -7.274353,-8.57312z" stroke="#000000" id="svg_15"/>
  <path fill="#ffff00" stroke-width="5" d="m194.582535,635.857178c-0.83316,-33.326294 15.557175,-66.068298 43.126556,-84.700867c44.954636,-34.403259 104.283615,-50.079529 160.055191,-40.607239c27.617065,-4.29126 39.839081,24.577271 30.123688,46.809692c-15.01651,14.788086 -41.137634,0.721924 -60.586212,8.370972c-63.053223,8.176086 -125.29599,35.780029 -167.910614,84.281616c-0.261032,-5.189331 -6.857666,-8.646729 -4.808609,-14.154175l0,0l0,0l0,0zm0.761383,29.572876c3.357101,-23.509521 26.641312,-35.749573 42.830795,-50.036621c54.501617,-38.841858 122.821198,-54.244324 188.890228,-51.632385c1.637085,26.784607 -10.880737,52.351074 -25.941895,73.57019c-20.680328,11.609314 -46.398041,-1.610046 -68.319702,8.958862c-38.449982,9.372986 -81.249069,21.180603 -105.858795,54.934204c-8.942978,27.107727 -27.842743,-0.48175 -29.305481,-16.434875c-2.077469,-6.338501 -1.789932,-12.85144 -2.29512,-19.359375l0,0l0,0l0,0l-0.000015,0l0,0l-0.000015,0l0,0zm10.556137,-80.387207c3.290421,-29.496094 22.59761,-53.886108 40.308411,-76.360107c19.965057,-23.953003 47.143524,-41.511444 77.68692,-47.944794c24.209381,-6.366821 49.159302,-9.014465 73.978638,-11.688965c18.823639,14.557556 30.796204,39.871063 27.642548,63.817841c-14.619293,3.727783 -40.467255,-8.878662 -60.181152,-5.803833c-55.906677,0.529419 -113.061172,23.093506 -150.845139,65.186157c-3.145721,4.062378 -5.973404,8.366455 -8.590225,12.793701l0,0l0,0l0,0zm-2.996277,116.356018c20.906052,16.879883 21.5914,46.138977 34.439728,68.161438c-15.401382,-19.964233 -28.957138,-43.286438 -34.439728,-68.161438zm16.555481,16.081299c6.556915,-18.195618 27.118011,-43.768616 44.271179,-41.867249c6.857391,17.78595 9.826569,37.057129 20.972534,53.090454c29.926758,55.313599 84.690704,103.166992 149.796143,104.673401c10.647125,2.173645 38.871429,-5.046936 37.723602,-2.060364c-27.211823,13.458252 -58.715485,16.407959 -88.697632,15.325928c-55.684265,-3.723145 -111.1474,-30.653137 -144.622116,-76.215942c-9.475601,-16.364441 -14.86113,-34.694824 -19.44371,-52.943115l0,-0.003113l0,0l0,0l0,0zm45.83197,-46.393616c15.024719,-7.036316 43.174408,-28.439453 54.464966,-11.189819c27.553619,54.64624 74.136017,101.110046 131.484314,122.960144c29.77417,10.001953 63.269379,9.845154 92.306244,-2.637573c-12.109314,18.933044 -32.148926,31.07373 -51.033173,42.226746c-48.263947,20.744141 -106.604279,9.49646 -147.270111,-22.845337c-39.359161,-31.37323 -70.256012,-76.278564 -79.847351,-126.369263l-0.057007,-1.160583l-0.047882,-0.984314l0,0l0,0l0,0l0,0zm20.135193,-196.768799c36.526459,-25.299286 81.789795,-37.164459 125.941345,-34.013031c-22.60025,14.525757 -50.960052,9.008301 -75.741241,16.87207c-17.289551,3.790466 -34.449127,8.886536 -50.200104,17.140839l0,0l0,0.000122l0,0l0,0l0,0zm31.538727,178.251465c24.048401,-11.46344 51.416077,-11.276184 77.406769,-9.707886c15.668732,24.574219 26.841705,53.136902 51.171753,70.852539c28.353302,25.49292 69.611847,32.689209 105.337433,20.709961c12.268188,-8.345398 25.889221,-3.012085 19.189392,13.542969c-8.065308,27.487061 -36.703186,39.56073 -62.947083,40.893799c-53.692322,5.400269 -102.810059,-25.315002 -139.079468,-62.413818c-21.160065,-21.329895 -39.031769,-46.203125 -51.078796,-73.877563l0,0zm81.555969,-204.389313c19.57074,-15.633118 46.221313,-1.486877 66.24527,5.994202c19.915497,17.15686 22.584747,45.705414 27.847534,70.079315c8.800018,57.215149 5.240692,118.680054 -21.338684,170.907654c-6.349915,18.306213 -24.603149,28.223938 -36.302277,8.430481c-13.595459,-15.098511 -23.98999,-32.666748 -33.80069,-50.353394c-5.801849,-16.924561 13.190369,-28.855713 17.16748,-44.3302c7.748901,-15.428223 9.720245,-32.783752 10.589508,-49.668518c3.651459,-25.260803 0.060577,-51.46759 -6.537659,-75.926331c-4.627319,-13.534882 -12.139648,-26.645355 -23.870483,-35.133148l0,0l0,-0.000061l0,0zm56.248413,270.220428c38.521637,-43.824341 44.628357,-106.052673 41.729279,-162.078491c-1.766083,-33.032043 -6.753815,-67.16803 -24.051788,-95.934113c17.874634,0.557068 37.100616,17.464203 51.108032,29.915375c39.694153,50.822388 51.368286,125.170471 21.190186,183.565247c-11.870972,23.613953 -27.950806,44.924011 -46.827057,63.303833c-15.801636,-1.306091 -31.819977,-7.327576 -43.148651,-18.771851l0,0l0,0zm43.927551,19.026367c41.48761,-40.264771 71.532104,-98.131409 62.565735,-157.467285c-3.569092,-27.789856 -13.646423,-54.634949 -28.738098,-78.144836c27.640991,17.342651 43.008911,48.059692 56.833435,76.596802c19.871338,49.876587 9.068542,110.666077 -26.445618,150.52887c-18.237244,10.417236 -43.970703,12.011169 -64.215454,8.486511l0,-0.000061zm68.302124,-9.312317c14.231506,-25.034912 30.379822,-50.411011 31.862854,-80.110107c2.212952,-9.930054 -1.219177,19.482483 -2.409607,25.670654c-3.784912,21.854431 -8.726807,45.180054 -22.178894,63.012573c-3.095337,-1.728882 -1.713928,-10.148071 -7.274353,-8.57312z" stroke="#000000" id="svg_16"/>
 </g>
</svg>